<svg id="visual" viewBox="0 0 900 300" width="900" height="300" xmlns="http://www.w3.org/2000/svg" xmlns:xlink="http://www.w3.org/1999/xlink" version="1.1"><rect x="0" y="0" width="900" height="300" fill="#111827"></rect><defs><linearGradient id="grad1_0" x1="66.7%" y1="100%" x2="100%" y2="0%"><stop offset="-10%" stop-color="#6366f1" stop-opacity="1"></stop><stop offset="110%" stop-color="#6366f1" stop-opacity="1"></stop></linearGradient></defs><defs><linearGradient id="grad1_1" x1="66.7%" y1="100%" x2="100%" y2="0%"><stop offset="-10%" stop-color="#6366f1" stop-opacity="1"></stop><stop offset="110%" stop-color="#234189" stop-opacity="1"></stop></linearGradient></defs><defs><linearGradient id="grad1_2" x1="66.7%" y1="100%" x2="100%" y2="0%"><stop offset="-10%" stop-color="#111827" stop-opacity="1"></stop><stop offset="110%" stop-color="#234189" stop-opacity="1"></stop></linearGradient></defs><defs><linearGradient id="grad2_0" x1="0%" y1="100%" x2="33.3%" y2="0%"><stop offset="-10%" stop-color="#6366f1" stop-opacity="1"></stop><stop offset="110%" stop-color="#6366f1" stop-opacity="1"></stop></linearGradient></defs><defs><linearGradient id="grad2_1" x1="0%" y1="100%" x2="33.3%" y2="0%"><stop offset="-10%" stop-color="#234189" stop-opacity="1"></stop><stop offset="110%" stop-color="#6366f1" stop-opacity="1"></stop></linearGradient></defs><defs><linearGradient id="grad2_2" x1="0%" y1="100%" x2="33.3%" y2="0%"><stop offset="-10%" stop-color="#234189" stop-opacity="1"></stop><stop offset="110%" stop-color="#111827" stop-opacity="1"></stop></linearGradient></defs><g transform="translate(900, 300)"><path d="M-240 0C-219.7 -20.9 -199.3 -41.7 -185.5 -60.3C-171.6 -78.8 -164.2 -95 -156.1 -113.4C-148.1 -131.9 -139.4 -152.6 -126.4 -173.9C-113.3 -195.2 -96 -217.1 -74.2 -228.3C-52.4 -239.4 -26.2 -239.7 0 -240L0 0Z" fill="#172c56"></path><path d="M-160 0C-146.4 -13.9 -132.9 -27.8 -123.6 -40.2C-114.4 -52.5 -109.5 -63.3 -104.1 -75.6C-98.7 -87.9 -92.9 -101.8 -84.2 -116C-75.6 -130.2 -64 -144.8 -49.4 -152.2C-34.9 -159.6 -17.5 -159.8 0 -160L0 0Z" fill="#3d54bd"></path><path d="M-80 0C-73.2 -7 -66.4 -13.9 -61.8 -20.1C-57.2 -26.3 -54.7 -31.7 -52 -37.8C-49.4 -44 -46.5 -50.9 -42.1 -58C-37.8 -65.1 -32 -72.4 -24.7 -76.1C-17.5 -79.8 -8.7 -79.9 0 -80L0 0Z" fill="#6366f1"></path></g><g transform="translate(0, 0)"><path d="M240 0C242.4 28.4 244.7 56.9 228.3 74.2C211.8 91.4 176.4 97.5 158.6 115.2C140.7 132.9 140.4 162.1 126.4 173.9C112.3 185.8 84.5 180.2 61.2 188.3C37.8 196.4 18.9 218.2 0 240L0 0Z" fill="#172c56"></path><path d="M160 0C161.6 19 163.2 37.9 152.2 49.4C141.2 61 117.6 65 105.7 76.8C93.8 88.6 93.6 108.1 84.2 116C74.9 123.8 56.4 120.1 40.8 125.5C25.2 130.9 12.6 145.5 0 160L0 0Z" fill="#3d54bd"></path><path d="M80 0C80.8 9.5 81.6 19 76.1 24.7C70.6 30.5 58.8 32.5 52.9 38.4C46.9 44.3 46.8 54 42.1 58C37.4 61.9 28.2 60.1 20.4 62.8C12.6 65.5 6.3 72.7 0 80L0 0Z" fill="#6366f1"></path></g></svg>