<svg xmlns="http://www.w3.org/2000/svg" xmlns:xlink="http://www.w3.org/1999/xlink" viewBox="0 0 912.32 848.76"><defs><style>.cls-1{fill:#e0e7ff;}.cls-2{fill:url(#linear-gradient);}</style><linearGradient id="linear-gradient" x1="122.96" y1="58.54" x2="769.48" y2="739.86" gradientUnits="userSpaceOnUse"><stop offset="0" stop-color="#6366f1"/><stop offset="1" stop-color="#4338ca"/></linearGradient></defs><g id="Layer_2" data-name="Layer 2"><g id="Layer_1-2" data-name="Layer 1"><path class="cls-1" d="M912.32,392.6a454.16,454.16,0,0,1-51.14,210.07c-76,146.21-228.85,246.09-405,246.09s-329-99.88-405-246.09A454.17,454.17,0,0,1,0,392.6c0-24,44.3-36.82,43.3-40.69C23.46,275.4,93,246.68,118.84,208.48,143.42,172.2,164.35,77.78,198.07,36c33.24-41.26,81.28-49.54,124,.52a2.13,2.13,0,0,0,2.81.39C443.26-42.25,563,27.93,579,45.5c6.33,7,28.13-49.89,79.92-43.17,71.61,9.38,86.3,108.33,122.61,186.33,23.3,50.12,68.77,62.13,86.67,112.85,11.57,32.83-3.48,50.51,1.92,52.83C897.21,366,912.32,378.93,912.32,392.6Z"/><path class="cls-2" d="M311.06,179.42c6,0,6,9.47,0,9.47-45.16,0-53.15,31.93-61.18,23.57C241.5,203.74,278.93,179.42,311.06,179.42Zm559,174.92c-5.4-2.32,9.65-20-1.92-52.83-17.9-50.72-63.37-62.73-86.67-112.85-36.31-78-51-176.95-122.61-186.33C607.11-4.39,585.31,52.45,579,45.5c-16-17.57-135.72-87.75-254.12-8.63a2.13,2.13,0,0,1-2.81-.39c-42.7-50.06-90.74-41.78-124-.52-33.72,41.82-54.65,136.24-79.23,172.52C93,246.68,23.47,275.4,43.3,351.91,44.3,355.78,0,368.59,0,392.6A454.17,454.17,0,0,0,51.15,602.67c76,146.21,228.82,246.09,405,246.09s329-99.88,405-246.09A454.16,454.16,0,0,0,912.32,392.6C912.32,378.93,897.21,366,870.1,354.34Zm-758.39-123c52.27-51.91,63-220.47,147.43-219.8,49.21.4,73.73,62.61,81.1,61.77,11.19-1-2.68-17-9.72-26.21-5.7-7.51,122.16-85.35,243.53,6,4,3-13,14.52-4.89,19.47,9.09,5.64,27.44-51.38,72.93-60.34,83.55-16.41,107.55,150.44,143.31,202,29.8,43,107.2,72.4,65.07,159.51-7.27,15.87-10.73,32.62-28.36,37.55C766.84,426.81,675,437,670.79,437c-9.32.81,15.73-27.55,22.17-122.12,7.5-104.79-20.94-200.14-30.83-200.14a5,5,0,0,0-4.67,7.15C688.2,185.72,700,331.46,658.75,437c-2.19,5.58-202.95,13.47-202.95,7.9.2-45.2-.19-43.54,1.67-44.21,17.56-6.35,29.33-34.1,39.29-33.85,2.37.08,5,1.66,6.4,1.39,5.61-1.08.13-51.2-28.22-51.67-6.5,0-17.79,2.59-24.23,2.31-9.73-.4-19.55-3.32-27.14-2.06-22.42,3.65-30.43,52.46-22.88,51.42,1.9-.27,3-1.46,6.41-1.39,9.19.22,21.67,27.76,38.53,33.85a2.17,2.17,0,0,1,1.37,2.06c.06,42,1.62,44.18-1.33,44.18-8.21,0-195.75-4.8-198.45-12.23C209.43,331.29,221,180.65,249.34,121.88c2.64-5.53-5.24-10.17-7.87-4.78-18.59,38.61-21.69,68.29-23.75,101-13.34,210.09,32.58,214.3,14,215.43-31.47,0-123.2-19.89-155.26-31.49-1.77-.64-13.77-24.85-14.45-26.26C31.71,312.79,51.84,290.73,111.71,231.34ZM440,345.43c-25.85,0-25.53-12.7,0-12.7S465.8,345.43,440,345.43ZM135,449.75c-220.74-44-90-91.6-88.66-87.75,5.5,16,5.5,10.88,4.8,15.38C35.49,395.9,66,416.08,164.14,434c302,55.25,745.88,1.08,696.67-57.11-1.51-1.77.15-2.08,4.89-15.16a2.14,2.14,0,0,1,2.81-1.25C1053.58,436.88,500,522.53,135,449.75ZM581.36,174c42.59,0,75,34.45,57.95,34.45-4.69,0-20.4-25-57.95-25C575.32,183.49,575.34,174,581.36,174ZM312.89,330.2c14.52,0,28.45-5.93,40-18.81,33.79-37.23,9.63-99.56-40.24-100.89C236.31,208,232.79,330.74,312.89,330.2Zm-24.61-17.5c-7.25-4.42-16.12-14-14.69-15.11C285.19,311.51,290.08,307,288.28,312.7Zm46.54-57.92c9.91,0,9.93,15.55,0,15.55S325,254.78,334.82,254.78Zm9.65,48.39c2.43,2.58-11.49,12-15.89,13.89-4.81,1.93-4.3,2.19-4.87-2.46C327.41,308.78,326.56,314.54,344.47,303.17ZM316.1,316.49c.35,2.36-.35,3.45-1.86,3.49a46.57,46.57,0,0,1-18.81-3.65c1.51-4.67,1.55-3,6.8-1.92C311.17,316.26,315.55,312.92,316.1,316.49Zm-18.39-46.16c-23.41,0-23.41-36.77,0-36.77S321.06,270.33,297.71,270.33ZM576.5,324.78c76.28,0,75.17-117.82,1.75-119.68C501.41,202.69,499.28,324.78,576.5,324.78Zm23.81-76.34c9.76,0,9.89,15.14.38,15.52C591.11,265.35,589.71,248.44,600.31,248.44Zm-.88,54.15c2.23-1,7.5,2.56-5.38,8.14-4.89,1.95-4.34,2-4.87-2.5C588.85,305.55,591.29,306.28,599.43,302.59ZM582,313.5c-4.27.62-22-.86-20.54-5.42,1.35-4.23.47,2.17,17.75.28C581.81,308.16,581.66,310.93,582,313.5Zm-18.84-86.32c23.26,0,23.33,36.6.38,36.8C539.44,264.2,539.93,227.18,563.18,227.18Zm-23.34,65c11.35,13.14,15.4,8.27,13.92,14.14C541.85,299,536.39,288.25,539.84,292.19Z"/></g></g></svg>