<svg xmlns="http://www.w3.org/2000/svg" xmlns:xlink="http://www.w3.org/1999/xlink" viewBox="0 0 1237.79 1119.48"><defs><style>.cls-1{fill:#e0e7ff;}.cls-2{fill:url(#linear-gradient);}</style><linearGradient id="linear-gradient" x1="615.85" y1="315.79" x2="606.17" y2="922.24" gradientUnits="userSpaceOnUse"><stop offset="0.1" stop-color="#6366f1"/><stop offset="1" stop-color="#4338ca"/></linearGradient></defs><g id="Layer_2" data-name="Layer 2"><g id="Layer_1-2" data-name="Layer 1"><path class="cls-1" d="M1075.56,663.32a454.16,454.16,0,0,1-51.14,210.07c-76,146.21-228.85,246.09-405,246.09s-329-99.88-405-246.09a454.17,454.17,0,0,1-51.15-210.07c0-24,44.3-36.82,43.3-40.69-19.83-76.51,49.65-105.23,75.54-143.44,24.58-36.27,45.51-130.69,79.23-172.52,33.24-41.25,81.28-49.53,124,.53a2.14,2.14,0,0,0,2.81.39c118.4-79.12,238.12-8.94,254.12,8.63,6.33,6.95,28.13-49.89,79.92-43.17,71.61,9.38,86.3,108.33,122.61,186.33,23.3,50.12,68.77,62.13,86.67,112.85,11.57,32.83-3.48,50.51,1.92,52.83C1060.45,636.7,1075.56,649.65,1075.56,663.32Z"/><path class="cls-2" d="M627.63,133.65c14,11.54,48.42,13.35,67-15.76q0,12.6-.42,23.65c-20.59,6.84-48.21,12.61-61.85,27.6-13.94,15.32-10.33,52.21,32,53.2,48.69,1.15,66.72-39.39,72.89-87.68,25.13-17.18,39.76-43.58,42.82-80,.4-4.82-9.39-5.6-9.75-.78-2.29,29.31-13,51-31.45,65.52.36-5.75,6-100.71,2.53-107C734.18-1,694.59-3,693.81,18c-.74,20.21,2.94,72.63-17.17,96.78-18.95,22.76-24.78-7-24.35-36.71.4-26.81,3.78-33.5,4.22-60.44.37-20.16-31.37-20.65-43-13.15-7.69,5-8.36,7.63-5,67.76C609.56,92.2,612.39,121.11,627.63,133.65Zm21.19,41.71c8.75-8.8,24.15-13.62,44.72-20.48C686.68,232.43,623.39,200.84,648.82,175.36Zm-472.53-8.8c11.29,19.54,25.24,24.73,45,20.19,22.3-5.12,30.35-19,36.57-37.17,9.75,19.25,22.62,24.52,41.41,21.07,15.17-2.78,23.35-13,27.34-26.61,19.24,105.57,23.81,96.89,39.35,94.52,13.83-2.09,13.4-.88,5.35-89.71,20.89,14.41,67,6.83,75.86-37.38,5-24.75,3.19-64-15-84.55C413,5.2,374.6,10.38,358.51,35.44c-3.76-22.48-53-15-49.32,6.9,3.73,22.55,7.09,42.54,10.14,60.28.23,3.81.37,8,.36,12.78-.14,41.63-22,47.26-28.93,9.66-10.86-59.22-.81-84.9-22.11-89.68-8.3-1.86-24.6,1-32.15,8.24C223.73,55.9,246.15,90,243.77,129.3,243,141,239.65,163,228.18,165.51,204,170.92,201.59,68.73,191.12,58s-49.78-1.5-44.53,19C153.37,103.35,163.8,145,176.29,166.56ZM373.17,43.68c29.11-47.92,45.55,88,12.22,92.4-9.35,1.24-15.42-6.48-16.7-15.54C365.57,98.32,361.45,62.67,373.17,43.68Zm126.89,179.9c13.91-1,13.41.24,12.32-89,19.52,15.89,66.11,12.25,78.44-31.33,6.84-24.19,8.22-63.45-8.34-85.47-17.41-23.14-56.06-21-74,2.73-2-22.69-51.55-19.13-49.61,3C477.41,238.83,480.66,225,500.06,223.58ZM522.41,29.86c32.69-45.46,38.47,91.3,5,93.08-9.43.5-14.85-7.73-15.41-16.81C510.57,83.56,509.3,47.8,522.41,29.86ZM1235.35,117c-8.76-27.72-46.26-38.93-71.37-22.7,5.81-22-42.47-35.53-48.12-14-5.83,22.06-10.95,41.63-15.44,59-1.36,3.59-3,7.54-5,11.89-17.27,38-39.57,33.85-30.46-3.08,14.25-58.09,34.18-77.73,16.61-90.87-6.82-5.1-22.89-9.22-32.76-5.69-16,5.73-10.88,47.52-28.53,81.13-5.52,10.39-17.59,29-29.06,26.63-24.52-5,15.62-98.76,10.33-113.3-5.11-14.06-44.62-21.77-48.25-1-2.21,12.78-5.08,29.06-7.22,45.28a82.14,82.14,0,0,1-10.6,24.88c-24.69,39.58-88.43,38.38-80-29.34C865.17,7,926,43.45,904.7,54.81c-9.6,5.12-22.34,4.87-24.15,18.11-2.65,19.34,21.17,25.49,34.53,12.37,17.47-17.13,21.46-60.6-31.38-67.73C801.59,6.65,804.29,96.07,815.14,121c16.08,36.92,91.8,63.09,128.05,2.1a124.84,124.84,0,0,0,.42,15.93c2.24,22.21,12.57,32.85,32.69,36.86,22.39,4.48,35.49-4.89,48.58-18.89,1,21.1,10.14,31.52,29.2,36.21,15,3.7,26.72-2.2,36-13-25.7,103.94-18.08,98.13-2.78,102.4,13.53,3.77,12.65,4.82,41.81-79.58,13.27,21.76,58.9,33.87,85.28-2.7C1229.21,179.73,1243.67,143.28,1235.35,117Zm-88.07,80.14c-9.14-2.74-11.51-12.34-9-21.07,6.29-21.59,17.17-55.76,35.74-68.21C1220.56,76.23,1179.78,206.91,1147.28,197.15ZM120.59,84.4C97.8,66,60.56,77.84,48.72,105.08c-7.37-21.52-55.21-5.94-48,15.08C70,322.63,70.32,310.48,89.32,304.27c13.45-4.39,13.13-3.38-9.32-89.42,23,10.68,67.71-4.34,69.32-49.53C150.21,140.28,142.11,101.74,120.59,84.4ZM91.89,199.9c-9.09,2.78-16.4-3.82-19.15-12.55-6.84-21.74-16.61-56-8.1-76.59C85.78,58.64,124.31,190,91.89,199.9ZM474.3,450.14c6,0,6,9.47,0,9.47-45.16,0-53.15,31.93-61.18,23.57C404.74,474.46,442.17,450.14,474.3,450.14Zm559,174.92c-5.4-2.32,9.65-20-1.92-52.83-17.9-50.72-63.37-62.73-86.67-112.85-36.31-78-51-176.95-122.61-186.33-51.79-6.72-73.59,50.12-79.92,43.17-16-17.57-135.72-87.75-254.12-8.63a2.14,2.14,0,0,1-2.81-.39c-42.7-50.06-90.74-41.78-124-.53-33.72,41.83-54.65,136.25-79.23,172.52-25.89,38.21-95.37,66.93-75.54,143.44,1,3.87-43.3,16.68-43.3,40.69a454.17,454.17,0,0,0,51.15,210.07c76,146.21,228.83,246.09,405,246.09s329-99.88,405-246.09a454.16,454.16,0,0,0,51.14-210.07C1075.56,649.65,1060.45,636.7,1033.34,625.06ZM275,502.06c52.27-51.91,63-220.47,147.43-219.8,49.21.4,73.73,62.6,81.1,61.77,11.19-1-2.68-17-9.72-26.21-5.7-7.51,122.16-85.35,243.53,6,4,3.05-13,14.52-4.89,19.47,9.09,5.63,27.45-51.39,72.93-60.34,83.55-16.41,107.55,150.44,143.31,202,29.8,43,107.2,72.4,65.07,159.51-7.26,15.87-10.73,32.62-28.36,37.55C930.08,697.53,838.2,707.71,834,707.71c-9.32.81,15.73-27.55,22.17-122.12,7.5-104.79-20.94-200.15-30.83-200.15a5,5,0,0,0-4.67,7.16c30.74,63.84,42.49,209.58,1.29,315.15-2.19,5.58-203,13.47-203,7.9.2-45.2-.19-43.54,1.68-44.21,17.55-6.35,29.32-34.1,39.28-33.85,2.37.07,5,1.66,6.41,1.39,5.6-1.08.12-51.2-28.23-51.68-6.5,0-17.79,2.6-24.23,2.32-9.73-.4-19.55-3.32-27.14-2.06C564.39,591.21,556.38,640,563.93,639c1.9-.28,3-1.46,6.41-1.39,9.19.22,21.67,27.75,38.53,33.85a2.17,2.17,0,0,1,1.37,2.06c.06,42,1.63,44.18-1.33,44.18-8.21,0-195.75-4.8-198.45-12.23C372.67,602,384.22,451.37,412.58,392.6c2.64-5.53-5.24-10.17-7.86-4.78-18.6,38.61-21.7,68.29-23.76,101-13.34,210.09,32.59,214.3,14,215.43-31.47,0-123.2-19.89-155.26-31.49-1.77-.64-13.77-24.85-14.45-26.26C195,583.51,215.08,561.45,275,502.06ZM603.27,616.15c-25.85,0-25.52-12.7,0-12.7S629,616.15,603.27,616.15Zm-305,104.32c-220.74-44-90-91.6-88.65-87.75,5.49,16,5.49,10.87,4.79,15.38-15.67,18.52,14.88,38.7,113,56.64,301.94,55.25,745.87,1.08,696.66-57.11-1.51-1.77.15-2.08,4.89-15.17a2.14,2.14,0,0,1,2.81-1.24C1216.83,707.6,663.23,793.25,298.26,720.47ZM744.6,444.72c42.59,0,75,34.45,57.95,34.45-4.69,0-20.4-25-57.95-25C738.56,454.21,738.58,444.72,744.6,444.72ZM476.13,600.92c14.53,0,28.45-5.93,40-18.82,33.79-37.22,9.63-99.55-40.24-100.88C399.55,478.68,396,601.46,476.13,600.92Zm-24.61-17.5c-7.25-4.42-16.11-14-14.69-15.11C448.43,582.23,453.32,577.73,451.52,583.42Zm46.54-57.92c9.91,0,9.93,15.55,0,15.55S488.21,525.5,498.06,525.5Zm9.66,48.39c2.42,2.58-11.5,12-15.9,13.89-4.81,1.93-4.3,2.19-4.87-2.46C490.66,579.5,489.8,585.26,507.72,573.89Zm-28.38,13.32c.35,2.36-.34,3.45-1.86,3.49a46.57,46.57,0,0,1-18.81-3.65c1.51-4.67,1.55-3,6.81-1.92C474.42,587,478.8,583.64,479.34,587.21ZM461,541.05c-23.41,0-23.41-36.77,0-36.77S484.31,541.05,461,541.05ZM739.74,595.5c76.29,0,75.17-117.82,1.75-119.68C664.65,473.41,662.52,595.5,739.74,595.5Zm23.81-76.35c9.76,0,9.89,15.15.38,15.53C754.35,536.07,753,519.15,763.55,519.15Zm-.88,54.16c2.23-1,7.5,2.55-5.38,8.14-4.89,1.95-4.34,2-4.87-2.5C752.09,576.27,754.54,577,762.67,573.31Zm-17.4,10.91c-4.27.62-22-.86-20.55-5.42,1.35-4.23.47,2.17,17.75.28C745.05,578.87,744.9,581.65,745.27,584.22ZM726.42,497.9c23.26,0,23.34,36.6.38,36.8C702.68,534.92,703.17,497.9,726.42,497.9Zm-23.34,65c11.35,13.14,15.4,8.26,13.92,14.14C705.09,569.75,699.63,559,703.08,562.91Z"/></g></g></svg>